<?xml version="1.0" encoding="UTF-8" standalone="no"?>
<svg
   height="256"
   width="256"
   viewBox="0 0 240.00068 239.99986"
   version="1.1"
   id="svg1"
   sodipodi:docname="addon-icon.svg"
   inkscape:version="1.4.2 (ebf0e940d0, 2025-05-08)"
   inkscape:export-filename="addon-icon.png"
   inkscape:export-xdpi="96"
   inkscape:export-ydpi="96"
   xmlns:inkscape="http://www.inkscape.org/namespaces/inkscape"
   xmlns:sodipodi="http://sodipodi.sourceforge.net/DTD/sodipodi-0.dtd"
   xmlns="http://www.w3.org/2000/svg"
   xmlns:svg="http://www.w3.org/2000/svg">
  <defs
     id="defs1" />
  <sodipodi:namedview
     id="namedview1"
     pagecolor="#ffffff"
     bordercolor="#000000"
     borderopacity="0.25"
     inkscape:showpageshadow="2"
     inkscape:pageopacity="0.0"
     inkscape:pagecheckerboard="0"
     inkscape:deskcolor="#d1d1d1"
     inkscape:zoom="1.4504018"
     inkscape:cx="161.3346"
     inkscape:cy="167.19505"
     inkscape:window-width="1528"
     inkscape:window-height="928"
     inkscape:window-x="0"
     inkscape:window-y="0"
     inkscape:window-maximized="0"
     inkscape:current-layer="svg1"
     inkscape:export-bgcolor="#ffffffff" />
  <path
     d="M 36.737699,20.205943 C 26.911906,26.040095 7.5531768,48.279636 7.3695685,54.111951 v 9.654118 c 0,12.237487 11.4387905,22.993254 21.8245875,22.993254 12.470669,0 22.861056,-10.335304 22.861974,-22.602168 0,12.266864 10.034188,22.602168 22.505775,22.602168 12.472504,0 22.184459,-10.335304 22.184459,-22.602168 0,12.266864 10.669466,22.602168 23.141056,22.602168 h 0.22584 c 12.47251,0 23.14197,-10.335304 23.14197,-22.602168 0,12.266864 9.71287,22.602168 22.18355,22.602168 12.47158,0 22.50577,-10.335304 22.50577,-22.602168 0,12.266864 10.39223,22.602168 22.86198,22.602168 10.38579,0 21.82458,-10.753931 21.82458,-22.993254 v -9.654118 c -0.18361,-5.833232 -19.54233,-28.073693 -29.36629,-33.906008 -30.53955,-1.072272 -51.71141,-1.257715 -83.2654,-1.253125 -31.553064,0.0028 -74.570628,0.495742 -83.263558,1.253125 z m 59.850762,60.789919 c -1.192448,2.078693 -2.66947,3.980591 -4.388236,5.650542 -4.707714,4.603057 -11.160623,7.456329 -18.274523,7.456329 -6.845537,0.0064 -13.420596,-2.671992 -18.313081,-7.460001 -1.70572,-1.670835 -3.001994,-3.457342 -4.189021,-5.537623 l -0.0055,0.0037 c -1.18611,2.083952 -2.838583,3.869542 -4.547975,5.542212 -4.894357,4.784488 -11.468666,7.460617 -18.313081,7.454493 -0.857451,0 -1.749786,-0.236854 -2.471367,-0.484725 -1.0025,10.439971 -1.425717,20.417231 -1.575358,27.691781 l -0.0018,0.0414 c -0.01836,3.69419 -0.03672,6.73199 -0.05508,10.95222 0.192788,21.90446 -2.169331,70.99578 9.65779,83.05792 18.32777,4.27349 52.052923,6.21973 85.887321,6.23167 h 0.006 c 33.83348,-0.0119 67.55864,-1.95818 85.8864,-6.23167 11.82713,-12.06305 9.465,-61.15438 9.65779,-83.05884 -0.0202,-4.21931 -0.0367,-7.25711 -0.0551,-10.95222 l -0.003,-0.0413 c -0.14872,-7.2764 -0.57194,-17.25275 -1.57444,-27.692708 -0.72158,0.247871 -1.61299,0.484726 -2.47137,0.484726 -6.84441,0.0062 -13.41872,-2.670005 -18.31308,-7.454492 -1.70939,-1.672671 -3.36186,-3.457343 -4.54888,-5.542214 l -0.006,-0.0037 c -1.18794,2.080281 -2.4833,3.867707 -4.18902,5.537623 -4.89229,4.787617 -11.46704,7.465702 -18.31216,7.459083 -7.11298,0 -13.56681,-2.855108 -18.27452,-7.457247 -1.71877,-1.669951 -3.19579,-3.571849 -4.38824,-5.650541 -1.17967,2.0764 -2.64303,3.978216 -4.34784,5.650541 -4.89368,4.787112 -11.46916,7.464768 -18.31492,7.458165 -0.24787,0 -0.49575,-0.01102 -0.74361,-0.01836 h -0.007 c -0.24787,0.0074 -0.49574,0.01836 -0.74637,0.01836 -6.84562,0.0069 -13.4211,-2.67047 -18.31491,-7.457246 -1.704798,-1.672342 -3.168156,-3.574155 -4.347844,-5.650543 z"
     color="#000000"
     fill="#fff"
     id="path1"
     style="fill:#fa5c5c;fill-opacity:1;stroke-width:0.918041"
     sodipodi:nodetypes="ccsscscsscscssccccccccccccccccccssccccccccccccccccccccc" />
  <path
     id="path2"
     style="fill:#fa5c5c;fill-opacity:1;stroke:#ffffff;stroke-width:7.74599;stroke-linecap:round;stroke-linejoin:miter;stroke-dasharray:none;stroke-opacity:1"
     d="m 120.00033,114.59175 -55.095309,74.01022 h 37.808759 v 66.76227 h 6.72147 21.1263 6.72531 v -66.76227 h 37.80879 z" />
</svg>
