<?xml version="1.0" encoding="UTF-8" standalone="no"?>
<svg
   height="256"
   width="256"
   viewBox="0 0 240.00068 239.99986"
   version="1.1"
   id="svg1"
   sodipodi:docname="addon-icon.svg"
   inkscape:version="1.4.4 (dcaf3e7d9e, 2026-05-05)"
   inkscape:export-filename="addon-icon.png"
   inkscape:export-xdpi="96"
   inkscape:export-ydpi="96"
   xmlns:inkscape="http://www.inkscape.org/namespaces/inkscape"
   xmlns:sodipodi="http://sodipodi.sourceforge.net/DTD/sodipodi-0.dtd"
   xmlns="http://www.w3.org/2000/svg"
   xmlns:svg="http://www.w3.org/2000/svg">
  <defs
     id="defs1" />
  <sodipodi:namedview
     id="namedview1"
     pagecolor="#ffffff"
     bordercolor="#000000"
     borderopacity="0.25"
     inkscape:showpageshadow="2"
     inkscape:pageopacity="0.0"
     inkscape:pagecheckerboard="0"
     inkscape:deskcolor="#d1d1d1"
     inkscape:zoom="2.0511779"
     inkscape:cx="73.616238"
     inkscape:cy="221.33624"
     inkscape:window-width="2550"
     inkscape:window-height="1400"
     inkscape:window-x="0"
     inkscape:window-y="0"
     inkscape:window-maximized="0"
     inkscape:current-layer="svg1"
     inkscape:export-bgcolor="#ffffffff" />
  <path
     id="path1"
     style="fill:#fa5c5c;fill-opacity:1;stroke-width:0.918041"
     d="M 119.99851 18.952891 C 88.446138 18.955691 45.430802 19.447981 36.736554 20.205336 C 26.910416 26.040495 7.5536174 48.278974 7.370016 54.111071 L 7.370016 63.76625 C 7.370016 76.003737 18.808622 86.758869 29.194419 86.758869 C 41.665088 86.758869 52.056114 76.42313 52.057032 64.156266 C 52.057032 76.42313 62.091002 86.758869 74.562589 86.758869 C 87.035093 86.758869 96.74588 76.42313 96.74588 64.156266 C 96.74588 76.42313 107.41522 86.758869 119.88681 86.758869 L 120.11387 86.758869 C 132.58638 86.758869 143.2548 76.42313 143.2548 64.156266 C 143.2548 76.42313 152.96741 86.758869 165.43809 86.758869 C 177.90967 86.758869 187.94365 76.42313 187.94365 64.156266 C 187.94365 76.42313 198.33651 86.758869 210.80626 86.758869 C 221.19205 86.758869 232.63066 76.005573 232.63066 63.76625 L 232.63066 54.111071 C 232.44705 48.277839 213.08809 26.037651 203.26413 20.205336 C 172.72458 19.133064 151.5525 18.948301 119.99851 18.952891 z M 96.590239 80.992861 L 96.588408 80.996524 C 95.39596 83.075217 93.918124 84.977223 92.199358 86.647174 C 87.491644 91.250231 81.03928 94.10325 73.92538 94.10325 C 67.079843 94.10965 60.505436 91.431521 55.612951 86.643512 C 53.907231 84.972677 52.610513 83.184837 51.423486 81.104556 L 51.417992 81.108218 C 50.231882 83.19217 48.579032 84.978166 46.86964 86.650836 C 41.975283 91.435324 35.401625 94.111205 28.55721 94.105081 C 27.699759 94.105081 26.80686 93.869552 26.085279 93.621681 C 25.082779 104.06165 24.660208 114.03825 24.510567 121.3128 L 24.508736 121.35308 C 24.490376 125.04727 24.472165 128.08625 24.453805 132.30648 C 24.646593 154.21094 22.283693 203.30122 34.110814 215.36336 C 48.043395 218.61202 70.874749 220.51688 95.887112 221.24839 L 95.887112 197.54715 L 73.445643 197.54715 C 65.62803 197.54589 61.153442 188.6352 65.821109 182.364 L 112.37581 119.82598 C 113.5597 118.23616 115.21055 117.0565 117.09811 116.45134 C 120.96789 115.21081 125.19771 116.56668 127.62487 119.82598 L 174.1814 182.364 C 178.8496 188.63592 174.37355 197.5475 166.55504 197.54715 L 144.11357 197.54715 L 144.11357 221.24839 C 169.12654 220.51694 191.95864 218.61213 205.8917 215.36336 C 217.71883 203.30031 215.35592 154.20911 215.54871 132.30465 C 215.52851 128.08534 215.51217 125.04819 215.49377 121.35308 L 215.49011 121.31097 C 215.34139 114.03457 214.9179 104.05981 213.9154 93.61985 C 213.19382 93.867721 212.30368 94.10325 211.4453 94.10325 C 204.60089 94.10945 198.0254 91.433492 193.13104 86.649005 C 191.42165 84.976334 189.76971 83.191258 188.58269 81.106387 L 188.57719 81.102725 C 187.38925 83.183006 186.09345 84.971765 184.38773 86.641681 C 179.49544 91.429298 172.92042 94.106207 166.0753 94.099588 C 158.96232 94.099588 152.50903 91.245651 147.80132 86.643512 C 146.08255 84.973561 144.60472 83.071553 143.41227 80.992861 C 142.2326 83.069261 140.77015 84.971187 139.06534 86.643512 C 134.17166 91.430624 127.59683 94.108022 120.75107 94.101419 C 120.5032 94.101419 120.25369 94.090449 120.00583 94.083109 L 120.00034 94.083109 C 119.75247 94.090509 119.5039 94.101419 119.25327 94.101419 C 112.40765 94.108319 105.83282 91.430288 100.93901 86.643512 C 99.234206 84.97117 97.769927 83.069249 96.590239 80.992861 z M 120.00034 125.50226 L 73.445643 188.04028 L 105.39398 188.04028 L 105.39398 225.39391 A 14.60702 14.60702 0 0 0 120.00034 240.00027 A 14.60702 14.60702 0 0 0 134.6067 225.39391 A 14.60702 14.60702 0 0 0 134.6067 225.38841 L 134.6067 188.04028 L 166.55504 188.04028 L 120.00034 125.50226 z " />
  <g
     id="path2"
     style="opacity:1" />
</svg>
